#!OML:ASF G:\JayActor3\Patient Classification 1\Patient 1\Session 5\male.ASF
:FULLY-SPECIFIED
:DEGREES
979
root -23.8544 15.46 -7.31082 545.449 -95.4799 -535.754
lowerback 37.8051 -1.88908 3.72378
upperback 9.78627 -2.23373 -1.09624
thorax -7.84629 -1.48324 -2.18176
lowerneck 2.96021 -0.652424 0.808496
upperneck -22.4699 -0.824046 2.86376
head -7.35167 -0.994039 0.893805
rclavicle 1.71949e-014 1.69961e-014
rhumerus -29.4716 1.42135 -87.6428
rradius 41.1791
rwrist -1.14499
rhand -18.9007 -9.35559
rfingers 7.12502
rthumb 7.40104 -39.2061
lclavicle 1.71949e-014 1.69961e-014
lhumerus -31.4937 -2.11407 83.5746
lradius 39.8758
lwrist 24.614
lhand -17.7584 11.4385
lfingers 7.12502
lthumb 8.50354 41.2473
rfemur -56.2082 -6.10193 25.3138
rtibia 86.2812
rfoot 12.5817 -3.92874
rtoes -2.41248
lfemur -70.7645 16.248 -37.5474
ltibia 50.06
lfoot 25.5147 -7.58473
ltoes -25.7577
980
root -23.9597 15.4664 -7.28976 545.426 -95.2532 -535.621
lowerback 37.7523 -1.85659 3.71848
upperback 9.7804 -2.20178 -1.12759
thorax -7.83474 -1.46802 -2.22593
lowerneck 2.94884 -0.628632 0.854909
upperneck -22.5165 -0.803046 2.79156
head -7.36596 -0.983526 0.861502
rclavicle -8.84592e-015 5.76476e-015
rhumerus -29.4757 1.44467 -87.6351
rradius 41.1591
rwrist -1.08125
rhand -18.8811 -9.36659
rfingers 7.12502
rthumb 7.41994 -39.2165
lclavicle -8.84592e-015 5.76476e-015
lhumerus -31.5015 -2.08617 83.5806
lradius 39.8638
lwrist 24.6377
lhand -17.7584 11.4295
lfingers 7.12502
lthumb 8.50353 41.2383
rfemur -55.8894 -6.10084 25.2573
rtibia 86.2742
rfoot 12.6424 -3.89509
rtoes -2.53298
lfemur -70.7384 16.3076 -37.8817
ltibia 49.2416
lfoot 26.6656 -7.33889
ltoes -25.0058
981
root -24.0672 15.4696 -7.27052 545.464 -94.9818 -535.542
lowerback 37.6863 -1.78572 3.66753
upperback 9.77695 -2.13922 -1.14837
thorax -7.81295 -1.43889 -2.24732
lowerneck 2.92806 -0.606423 0.903472
upperneck -22.5588 -0.786075 2.71144
head -7.3771 -0.974363 0.826391
rclavicle -1.07344e-014 -2.59414e-014
rhumerus -29.4728 1.45837 -87.6224
rradius 41.1368
rwrist -1.00585
rhand -18.8619 -9.37203
rfingers 7.12502
rthumb 7.4384 -39.2213
lclavicle -1.07344e-014 -2.59414e-014
lhumerus -31.4983 -2.06215 83.5872
lradius 39.8488
lwrist 24.6457
lhand -17.7589 11.4185
lfingers 7.12502
lthumb 8.50302 41.2273
rfemur -55.6018 -6.03079 25.2095
rtibia 86.2824
rfoot 12.7333 -3.90247
rtoes -2.69496
lfemur -70.7409 16.3582 -38.1061
ltibia 48.6618
lfoot 27.6592 -7.10016
ltoes -24.4318
982
root -24.1773 15.4731 -7.24976 545.676 -94.6988 -535.645
lowerback 37.6087 -1.71768 3.6355
upperback 9.78101 -2.07443 -1.16921
thorax -7.77899 -1.4088 -2.27981
lowerneck 2.90519 -0.581155 0.945608
upperneck -22.605 -0.765621 2.63209
head -7.38914 -0.963232 0.792403
rclavicle 5.96354e-016 3.08116e-014
rhumerus -29.4633 1.46352 -87.6072
rradius 41.1187
rwrist -0.929486
rhand -18.8307 -9.38376
rfingers 7.12502
rthumb 7.46855 -39.2319
lclavicle 5.96354e-016 3.08116e-014
lhumerus -31.4898 -2.03315 83.5922
lradius 39.8371
lwrist 24.6321
lhand -17.7652 11.4074
lfingers 7.12502
lthumb 8.49695 41.2165
rfemur -55.2901 -5.96796 25.1668
rtibia 86.284
rfoot 12.8562 -3.8881
rtoes -2.90288
lfemur -70.7255 16.3812 -38.2154
ltibia 48.3258
lfoot 28.4933 -6.85125
ltoes -23.9695
983
root -24.2898 15.4761 -7.22806 545.876 -94.4044 -535.746
lowerback 37.5349 -1.65014 3.59807
upperback 9.78486 -2.01265 -1.19339
thorax -7.74674 -1.38019 -2.31162
lowerneck 2.88282 -0.548875 0.980038
upperneck -22.6419 -0.734952 2.55708
head -7.39818 -0.946549 0.760259
rclavicle 5.76476e-015 -1.28216e-014
rhumerus -29.4605 1.47054 -87.5968
rradius 41.1063
rwrist -0.862488
rhand -18.7972 -9.39911
rfingers 7.12502
rthumb 7.50089 -39.2461
lclavicle 5.76476e-015 -1.28216e-014
lhumerus -31.4918 -1.99244 83.5881
lradius 39.8364
lwrist 24.6053
lhand -17.7553 11.4157
lfingers 7.12502
lthumb 8.50646 41.2244
rfemur -54.9583 -5.91327 25.114
rtibia 86.2841
rfoot 13.002 -3.86004
rtoes -3.10451
lfemur -70.6831 16.3736 -38.2218
ltibia 48.2265
lfoot 29.1944 -6.55732
ltoes -23.5559
984
root -24.4047 15.4788 -7.20544 546.203 -94.0958 -535.983
lowerback 37.4636 -1.58065 3.56047
upperback 9.78833 -1.94853 -1.21651
thorax -7.71545 -1.35065 -2.34293
lowerneck 2.8559 -0.513243 1.00369
upperneck -22.667 -0.699272 2.48861
head -7.40237 -0.926736 0.73153
rclavicle -1.19271e-014 -7.05686e-015
rhumerus -29.4637 1.48044 -87.5871
rradius 41.0993
rwrist -0.819709
rhand -18.7725 -9.40816
rfingers 7.12502
rthumb 7.52479 -39.2543
lclavicle -1.19271e-014 -7.05686e-015
lhumerus -31.5016 -1.94399 83.5804
lradius 39.842
lwrist 24.5771
lhand -17.7554 11.4293
lfingers 7.12502
lthumb 8.50641 41.238
rfemur -54.6048 -5.86147 25.0624
rtibia 86.278
rfoot 13.1598 -3.82588
rtoes -3.20693
lfemur -70.6105 16.3366 -38.111
ltibia 48.3549
lfoot 29.7773 -6.18449
ltoes -23.0882
985
root -24.5223 15.4807 -7.18205 546.649 -93.7693 -536.347
lowerback 37.3981 -1.50652 3.51995
upperback 9.78751 -1.87961 -1.24175
thorax -7.69063 -1.31896 -2.3765
lowerneck 2.83653 -0.475256 1.01111
upperneck -22.6836 -0.657568 2.43825
head -7.40499 -0.903858 0.710968
rclavicle -1.07344e-014 8.44835e-015
rhumerus -29.4836 1.489 -87.581
rradius 41.1028
rwrist -0.806099
rhand -18.7491 -9.41954
rfingers 7.12502
rthumb 7.54735 -39.2649
lclavicle -1.07344e-014 8.44835e-015
lhumerus -31.5227 -1.88738 83.5622
lradius 39.8471
lwrist 24.5419
lhand -17.7352 11.4344
lfingers 7.12502
lthumb 8.52589 41.2423
rfemur -54.2307 -5.80716 25.0085
rtibia 86.2717
rfoot 13.3155 -3.78358
rtoes -3.33184
lfemur -70.5034 16.2779 -37.8981
ltibia 48.6889
lfoot 30.245 -5.72436
ltoes -22.4696
986
root -24.6422 15.4815 -7.15796 547.139 -93.4297 -536.764
lowerback 37.3398 -1.42868 3.47035
upperback 9.78309 -1.80923 -1.26877
thorax -7.6721 -1.28669 -2.40743
lowerneck 2.82044 -0.435924 1.01033
upperneck -22.6931 -0.61307 2.3946
head -7.40571 -0.879233 0.693712
rclavicle 1.09332e-014 3.18055e-015
rhumerus -29.5147 1.50161 -87.5772
rradius 41.1097
rwrist -0.814002
rhand -18.7315 -9.43246
rfingers 7.12502
rthumb 7.56436 -39.2772
lclavicle 1.09332e-014 3.18055e-015
lhumerus -31.5481 -1.81558 83.534
lradius 39.8418
lwrist 24.5058
lhand -17.71 11.4268
lfingers 7.12502
lthumb 8.55016 41.2337
rfemur -53.8382 -5.75295 24.9441
rtibia 86.2691
rfoot 13.4599 -3.73952
rtoes -3.41245
lfemur -70.35 16.1931 -37.5969
ltibia 49.198
lfoot 30.5905 -5.2274
ltoes -21.4817
987
root -24.7649 15.4805 -7.1333 547.498 -93.0748 -537.057
lowerback 37.284 -1.34136 3.40615
upperback 9.77666 -1.73275 -1.30025
thorax -7.65625 -1.25157 -2.43764
lowerneck 2.81136 -0.400467 1.00156
upperneck -22.7011 -0.573041 2.35766
head -7.4071 -0.856547 0.680341
rclavicle -5.1684e-015 5.26779e-015
rhumerus -29.5567 1.50997 -87.5725
rradius 41.119
rwrist -0.838139
rhand -18.7157 -9.45122
rfingers 7.12502
rthumb 7.57958 -39.2954
lclavicle -5.1684e-015 5.26779e-015
lhumerus -31.5704 -1.74379 83.4982
lradius 39.8183
lwrist 24.4748
lhand -17.6722 11.4047
lfingers 7.12502
lthumb 8.58666 41.2101
rfemur -53.4338 -5.69238 24.8557
rtibia 86.2792
rfoot 13.5876 -3.69805
rtoes -3.37598
lfemur -70.1423 16.0808 -37.2316
ltibia 49.8431
lfoot 30.653 -4.97404
ltoes -20.328
988
root -24.8897 15.4771 -7.10802 547.689 -92.7088 -537.185
lowerback 37.2324 -1.2486 3.33202
upperback 9.76773 -1.65371 -1.33983
thorax -7.64469 -1.21515 -2.472
lowerneck 2.80402 -0.366303 0.994924
upperneck -22.7089 -0.533764 2.32432
head -7.40872 -0.834691 0.667845
rclavicle -7.55382e-015 -2.22639e-014
rhumerus -29.6047 1.51139 -87.5724
rradius 41.1283
rwrist -0.859863
rhand -18.7002 -9.47498
rfingers 7.12502
rthumb 7.59455 -39.3186
lclavicle -7.55382e-015 -2.22639e-014
lhumerus -31.584 -1.67151 83.4492
lradius 39.7721
lwrist 24.451
lhand -17.6377 11.3692
lfingers 7.12502
lthumb 8.61994 41.1732
rfemur -53.0266 -5.62179 24.7428
rtibia 86.3032
rfoot 13.6988 -3.65987
rtoes -3.23791
lfemur -69.8952 15.9515 -36.8428
ltibia 50.5853
lfoot 30.2725 -5.09728
ltoes -19.2291
